<svg id="svg" version="1.1" xmlns="http://www.w3.org/2000/svg" xmlns:xlink="http://www.w3.org/1999/xlink" width="400" height="266.6666666666667" viewBox="0, 0, 400,266.6666666666667"><g id="svgg"><path id="path0" d="M73.958 65.512 C 68.679 66.655,64.139 71.231,63.046 76.510 C 62.557 78.872,62.659 177.272,63.152 179.365 C 64.367 184.517,68.982 189.006,74.166 190.079 C 76.410 190.543,317.827 190.460,319.999 189.995 C 325.119 188.896,329.514 184.649,330.837 179.520 C 331.467 177.079,331.467 78.389,330.837 75.949 C 329.481 70.692,325.396 66.716,320.131 65.527 C 317.470 64.927,76.731 64.912,73.958 65.512 M319.977 71.648 C 321.977 72.383,323.941 74.357,324.706 76.402 L 325.260 77.884 325.260 127.734 C 325.260 177.220,325.257 177.595,324.731 179.000 C 324.057 180.802,322.574 182.487,320.796 183.472 L 319.401 184.245 197.135 184.245 L 74.870 184.245 73.698 183.636 C 71.497 182.491,69.854 180.487,69.160 178.099 C 68.785 176.811,68.751 171.826,68.812 127.203 L 68.880 77.734 69.637 76.096 C 70.530 74.162,72.604 72.121,74.280 71.528 C 75.264 71.180,89.239 71.133,196.930 71.114 L 318.470 71.094 319.977 71.648 M285.608 86.206 C 282.521 86.979,280.774 88.857,279.792 92.459 C 279.186 94.683,279.208 111.992,279.821 114.939 C 281.537 123.190,293.316 124.247,296.403 116.427 C 296.924 115.106,296.986 114.408,297.080 108.748 L 297.184 102.522 294.385 102.693 C 292.845 102.788,290.842 102.865,289.933 102.865 L 288.281 102.865 288.281 105.339 L 288.281 107.813 290.000 107.813 L 291.719 107.813 291.628 111.145 C 291.506 115.586,290.500 117.043,287.891 116.554 C 285.307 116.069,285.111 115.088,285.208 103.125 C 285.296 92.176,285.324 92.005,287.140 91.246 C 289.553 90.238,291.233 91.705,291.368 94.939 L 291.460 97.135 294.336 97.135 L 297.213 97.135 297.051 95.039 C 296.506 87.968,292.114 84.578,285.608 86.206 M306.845 86.315 C 302.926 87.540,301.302 89.935,301.302 94.493 C 301.302 99.453,302.334 101.144,308.541 106.363 C 311.847 109.142,312.761 110.598,312.759 113.078 C 312.756 118.379,306.998 117.766,306.409 112.401 C 306.233 110.797,306.518 110.906,303.505 111.289 L 300.911 111.619 300.937 113.237 C 301.023 118.689,304.219 121.731,309.765 121.639 C 315.371 121.546,318.469 118.377,318.484 112.719 C 318.497 107.925,317.407 106.225,310.168 99.753 C 307.526 97.391,306.920 96.247,307.087 93.934 C 307.392 89.727,312.760 90.280,312.760 94.518 C 312.760 95.723,312.852 95.745,316.504 95.400 L 318.295 95.231 318.140 93.774 C 317.491 87.670,312.679 84.492,306.845 86.315 M80.469 103.776 L 80.469 121.094 83.464 121.094 L 86.458 121.094 86.458 115.618 L 86.458 110.143 87.407 108.262 C 88.209 106.673,88.389 106.461,88.570 106.901 C 88.867 107.626,91.987 116.338,92.882 118.945 L 93.620 121.093 96.680 121.094 C 98.612 121.094,99.740 120.995,99.740 120.825 C 99.740 120.677,98.088 115.983,96.069 110.394 L 92.399 100.233 93.829 97.317 C 94.616 95.713,96.127 92.819,97.187 90.885 C 98.247 88.952,99.193 87.165,99.289 86.914 C 99.448 86.496,99.209 86.458,96.384 86.458 L 93.305 86.458 91.119 91.074 C 89.916 93.613,88.384 96.806,87.714 98.170 L 86.495 100.651 86.477 93.555 L 86.458 86.458 83.464 86.458 L 80.469 86.458 80.469 103.776 M108.332 86.654 C 108.332 86.835,107.887 89.149,104.794 105.078 C 103.039 114.117,101.834 120.547,101.827 120.907 C 101.825 121.019,103.138 121.078,104.745 121.037 L 107.667 120.964 108.199 117.318 L 108.730 113.672 111.882 113.599 L 115.034 113.526 115.642 117.310 L 116.249 121.094 119.220 121.094 C 122.171 121.094,122.191 121.090,122.047 120.508 C 121.967 120.186,121.012 115.293,119.925 109.635 C 117.191 95.410,115.630 87.453,115.467 86.914 C 115.323 86.437,108.335 86.182,108.332 86.654 M125.521 103.776 L 125.521 121.094 132.878 121.094 L 140.234 121.094 140.190 118.555 L 140.145 116.016 135.828 115.944 L 131.510 115.873 131.510 101.166 L 131.510 86.458 128.516 86.458 L 125.521 86.458 125.521 103.776 M144.271 103.776 L 144.271 121.094 147.135 121.094 L 150.000 121.094 150.000 103.776 L 150.000 86.458 147.135 86.458 L 144.271 86.458 144.271 103.776 M155.469 103.796 L 155.469 121.134 161.803 121.049 L 168.138 120.964 169.670 120.180 C 175.275 117.311,175.487 105.606,169.970 103.564 C 169.788 103.496,170.110 102.983,170.756 102.311 C 173.932 99.005,174.058 92.090,171.001 88.845 C 169.166 86.897,167.341 86.480,160.612 86.468 L 155.469 86.458 155.469 103.796 M178.385 103.754 L 178.385 121.094 181.388 121.094 L 184.391 121.094 184.365 114.258 L 184.339 107.422 185.594 107.347 L 186.849 107.273 189.069 114.118 L 191.289 120.964 194.343 121.037 C 197.989 121.125,197.830 121.667,195.818 116.016 C 191.918 105.064,192.149 106.057,193.322 105.298 C 197.679 102.477,197.886 91.648,193.645 88.413 C 191.573 86.832,190.501 86.617,184.180 86.512 L 178.385 86.415 178.385 103.754 M201.563 103.776 L 201.563 121.094 209.375 121.094 L 217.188 121.094 217.188 118.490 L 217.188 115.885 212.370 115.885 L 207.552 115.885 207.552 111.068 L 207.552 106.250 211.458 106.250 L 215.365 106.250 215.365 103.711 L 215.365 101.172 211.458 101.225 L 207.552 101.278 207.552 96.472 L 207.552 91.667 212.240 91.667 L 216.927 91.667 216.927 89.063 L 216.927 86.458 209.245 86.458 L 201.563 86.458 201.563 103.776 M221.875 103.751 L 221.875 121.094 224.740 121.094 L 227.604 121.094 227.604 114.193 L 227.604 107.292 228.897 107.292 L 230.190 107.292 231.389 111.133 C 232.761 115.524,233.399 117.471,234.165 119.596 L 234.705 121.094 237.789 121.094 L 240.873 121.094 238.311 113.576 L 235.748 106.059 236.994 104.986 C 241.867 100.789,240.934 90.107,235.462 87.443 L 233.724 86.596 227.799 86.502 L 221.875 86.409 221.875 103.751 M244.792 103.776 L 244.792 121.094 247.786 121.094 L 250.781 121.094 250.781 103.776 L 250.781 86.458 247.786 86.458 L 244.792 86.458 244.792 103.776 M256.250 103.768 L 256.250 121.094 259.012 121.094 L 261.775 121.094 261.582 110.417 C 261.398 100.187,261.485 98.585,262.120 100.586 C 262.268 101.051,263.908 105.855,265.765 111.261 L 269.141 121.089 271.940 121.092 L 274.740 121.094 274.740 103.776 L 274.740 86.458 272.070 86.458 L 269.401 86.458 269.465 96.549 C 269.502 102.470,269.434 106.479,269.299 106.250 C 269.104 105.918,265.732 96.403,263.116 88.802 L 262.354 86.589 259.302 86.515 L 256.250 86.442 256.250 103.768 M165.743 92.026 C 167.737 93.332,168.090 98.002,166.339 99.924 C 165.758 100.561,163.689 101.072,162.240 100.935 L 161.328 100.848 161.256 96.462 C 161.217 94.050,161.249 91.910,161.327 91.707 C 161.523 91.196,164.843 91.435,165.743 92.026 M188.648 91.939 C 190.151 92.690,190.487 93.499,190.571 96.568 C 190.691 100.903,189.781 102.128,186.315 102.303 L 184.375 102.401 184.375 96.874 L 184.375 91.347 186.133 91.453 C 187.100 91.512,188.232 91.730,188.648 91.939 M232.247 92.033 C 233.563 92.716,234.102 94.155,234.108 97.005 C 234.117 100.980,233.081 102.214,229.734 102.214 L 227.734 102.214 227.664 96.775 L 227.593 91.337 229.487 91.460 C 230.541 91.528,231.764 91.782,232.247 92.033 M114.048 108.278 C 114.062 108.861,114.010 108.873,111.784 108.799 C 110.146 108.745,109.523 108.634,109.569 108.402 C 109.604 108.225,110.045 105.471,110.548 102.282 C 111.052 99.093,111.539 96.016,111.630 95.443 C 111.784 94.484,113.998 106.239,114.048 108.278 M165.625 106.356 C 167.235 106.934,167.708 107.998,167.707 111.041 C 167.706 115.191,166.822 116.221,163.375 116.092 L 161.328 116.016 161.257 111.337 C 161.218 108.764,161.243 106.508,161.314 106.324 C 161.481 105.888,164.380 105.909,165.625 106.356 M108.333 132.609 C 103.298 134.377,102.596 136.242,102.416 148.321 C 102.254 159.184,102.567 161.826,104.312 164.344 C 107.840 169.436,117.223 168.751,119.896 163.207 C 121.340 160.212,121.685 141.049,120.355 137.708 C 118.543 133.158,113.210 130.896,108.333 132.609 M80.469 149.911 L 80.469 167.188 83.464 167.188 L 86.458 167.188 86.458 161.692 L 86.458 156.196 87.413 154.379 C 88.042 153.183,88.432 152.681,88.556 152.909 C 88.659 153.099,89.834 156.390,91.167 160.221 L 93.590 167.188 96.695 167.188 C 99.781 167.188,99.799 167.184,99.668 166.602 C 99.595 166.279,98.284 162.559,96.756 158.333 C 95.227 154.108,93.612 149.646,93.168 148.418 L 92.360 146.186 94.004 142.950 C 94.908 141.170,96.451 138.231,97.433 136.419 C 98.415 134.607,99.219 133.025,99.219 132.904 C 99.219 132.782,97.856 132.685,96.190 132.688 L 93.161 132.694 91.038 137.115 C 89.870 139.547,88.391 142.684,87.752 144.087 L 86.589 146.637 86.519 139.660 L 86.449 132.682 83.459 132.659 L 80.469 132.635 80.469 149.911 M126.425 132.776 C 126.357 132.844,126.302 140.614,126.302 150.043 L 126.302 167.188 129.042 167.188 L 131.781 167.188 131.711 155.078 C 131.672 148.418,131.729 142.969,131.836 142.969 C 131.943 142.969,132.027 143.115,132.022 143.294 C 132.016 143.473,133.276 148.921,134.821 155.401 L 137.630 167.182 139.518 167.185 C 140.967 167.187,141.406 167.102,141.406 166.822 C 141.406 166.447,146.432 145.027,146.850 143.620 C 146.995 143.133,147.092 147.430,147.109 155.013 L 147.135 167.188 149.872 167.188 L 152.608 167.188 152.541 149.998 L 152.474 132.809 148.307 132.746 L 144.141 132.682 142.783 139.193 C 142.036 142.773,141.113 147.168,140.731 148.958 C 140.349 150.749,139.953 152.624,139.850 153.125 C 139.599 154.352,139.555 154.214,138.047 147.396 C 137.335 144.173,136.343 139.779,135.844 137.630 C 135.344 135.482,134.896 133.490,134.847 133.204 C 134.764 132.712,126.890 132.312,126.425 132.776 M157.921 132.791 C 157.861 132.850,157.813 140.614,157.813 150.043 L 157.813 167.188 160.803 167.188 L 163.793 167.188 163.863 160.612 L 163.932 154.036 167.057 153.874 C 174.001 153.513,175.949 150.890,175.745 142.178 C 175.613 136.526,174.250 133.993,170.848 133.077 C 169.896 132.820,158.150 132.561,157.921 132.791 M183.199 132.943 C 183.161 133.086,182.046 138.945,180.721 145.964 C 179.395 152.982,177.977 160.482,177.568 162.630 C 177.160 164.779,176.825 166.683,176.824 166.862 C 176.823 167.103,177.568 167.188,179.683 167.188 C 183.002 167.188,182.568 167.697,183.227 163.021 C 183.459 161.374,183.702 159.938,183.767 159.831 C 183.832 159.723,185.276 159.635,186.977 159.635 C 190.588 159.635,190.138 159.157,190.981 163.898 L 191.543 167.057 194.469 167.131 C 196.079 167.171,197.396 167.144,197.396 167.069 C 197.396 166.995,196.933 164.559,196.367 161.657 C 195.801 158.755,194.447 151.751,193.360 146.094 C 192.272 140.436,191.241 135.126,191.069 134.293 L 190.755 132.779 187.011 132.731 C 184.693 132.701,183.241 132.781,183.199 132.943 M201.302 149.935 L 201.302 167.188 204.062 167.188 L 206.822 167.188 206.637 156.055 C 206.514 148.678,206.539 145.010,206.711 145.182 C 206.853 145.326,208.148 148.907,209.589 153.141 C 211.029 157.376,212.698 162.268,213.296 164.014 L 214.385 167.188 217.220 167.188 L 220.056 167.188 219.989 149.965 L 219.922 132.742 217.217 132.708 L 214.513 132.673 214.703 142.639 C 214.807 148.120,214.794 152.604,214.673 152.603 C 214.447 152.602,213.447 149.864,209.872 139.453 C 208.740 136.159,207.714 133.289,207.592 133.076 C 207.415 132.769,206.744 132.689,204.336 132.686 L 201.302 132.682 201.302 149.935 M226.042 149.857 L 226.042 167.188 229.038 167.188 L 232.035 167.188 231.968 149.976 L 231.901 132.765 228.971 132.646 L 226.042 132.526 226.042 149.857 M238.021 149.935 L 238.021 167.188 245.703 167.188 L 253.385 167.188 253.385 164.583 L 253.385 161.979 248.568 161.979 L 243.750 161.979 243.750 157.161 L 243.750 152.344 247.526 152.344 L 251.302 152.344 251.302 149.740 L 251.302 147.135 247.526 147.135 L 243.750 147.135 243.750 142.448 L 243.750 137.760 248.447 137.760 L 253.144 137.760 253.069 135.259 L 252.995 132.757 245.508 132.720 L 238.021 132.682 238.021 149.935 M256.163 132.725 C 256.139 132.748,256.157 133.890,256.203 135.264 L 256.286 137.760 259.002 137.760 L 261.719 137.760 261.719 152.474 L 261.719 167.188 264.726 167.188 L 267.733 167.188 267.596 152.474 L 267.458 137.760 270.318 137.760 L 273.177 137.760 273.177 135.221 L 273.177 132.682 264.692 132.682 C 260.025 132.682,256.187 132.701,256.163 132.725 M287.386 133.073 C 287.327 133.288,287.216 133.815,287.140 134.245 C 286.702 136.720,282.648 157.852,281.500 163.643 C 280.732 167.516,280.517 167.188,283.826 167.188 C 287.130 167.188,286.702 167.709,287.408 162.826 L 287.869 159.635 291.065 159.635 C 294.166 159.635,294.265 159.653,294.394 160.221 C 294.586 161.062,295.573 166.716,295.573 166.973 C 295.573 167.091,296.928 167.188,298.585 167.188 C 301.333 167.188,301.586 167.147,301.461 166.732 C 301.386 166.481,300.787 163.464,300.130 160.026 C 299.473 156.589,298.651 152.370,298.303 150.651 C 297.954 148.932,297.138 144.742,296.488 141.338 C 295.838 137.935,295.187 134.596,295.041 133.917 L 294.777 132.682 291.135 132.682 C 288.120 132.682,287.475 132.749,287.386 133.073 M304.687 149.935 L 304.688 167.188 309.387 167.188 C 319.293 167.188,322.135 164.888,322.135 156.870 C 322.135 153.306,321.524 151.797,319.485 150.332 L 318.209 149.416 319.218 148.553 C 323.485 144.900,322.365 136.059,317.321 133.576 L 315.649 132.753 310.168 132.718 L 304.687 132.682 304.687 149.935 M113.271 137.405 C 114.963 138.404,114.966 138.426,115.054 149.469 C 115.124 158.323,115.083 159.617,114.698 160.624 C 113.651 163.366,110.126 163.434,108.904 160.736 C 108.318 159.445,108.234 140.881,108.806 139.266 C 109.514 137.269,111.581 136.407,113.271 137.405 M168.440 138.028 C 169.718 138.807,170.052 139.884,170.052 143.229 C 170.052 147.921,169.291 148.958,165.850 148.958 L 163.802 148.958 163.802 143.403 C 163.802 140.347,163.880 137.769,163.976 137.674 C 164.396 137.253,167.585 137.506,168.440 138.028 M314.067 137.923 C 315.347 138.435,315.835 139.281,316.053 141.367 C 316.439 145.059,315.193 146.924,312.231 147.092 L 310.417 147.194 310.417 142.347 L 310.417 137.500 311.713 137.500 C 312.427 137.500,313.486 137.690,314.067 137.923 M187.477 143.270 C 187.663 144.581,188.154 147.540,188.569 149.845 C 188.983 152.150,189.323 154.183,189.323 154.362 C 189.323 154.722,184.642 154.852,184.628 154.492 C 184.605 153.900,186.865 140.885,186.990 140.885 C 187.073 140.885,187.292 141.958,187.477 143.270 M292.330 147.823 C 292.965 151.383,293.485 154.385,293.487 154.492 C 293.488 154.600,292.435 154.688,291.146 154.688 C 289.857 154.688,288.802 154.585,288.802 154.459 C 288.802 154.334,289.214 151.726,289.716 148.665 C 290.219 145.604,290.700 142.652,290.784 142.105 C 291.016 140.596,291.088 140.860,292.330 147.823 M314.430 152.618 C 315.870 153.334,316.268 154.212,316.353 156.854 C 316.478 160.696,315.461 162.013,312.231 162.196 L 310.417 162.298 310.417 157.161 L 310.417 152.023 312.044 152.131 C 312.939 152.191,314.013 152.410,314.430 152.618 " stroke="none" fill="#0c0c0c" fill-rule="evenodd"></path><path id="path1" d="M0.000 133.333 L 0.000 266.667 200.000 266.667 L 400.000 266.667 400.000 133.333 L 400.000 0.000 200.000 0.000 L 0.000 0.000 0.000 133.333 M319.932 65.388 C 324.992 66.324,329.430 70.526,330.905 75.781 C 331.542 78.050,331.655 176.627,331.024 179.167 C 329.574 185.001,325.156 189.109,319.112 190.245 C 315.753 190.876,75.491 190.670,73.465 190.034 C 67.880 188.281,64.021 184.205,63.030 179.011 C 62.817 177.895,62.758 163.592,62.814 126.823 L 62.891 76.172 63.511 74.609 C 65.465 69.687,69.701 66.086,74.479 65.284 C 76.103 65.012,318.451 65.115,319.932 65.388 M74.584 71.569 C 72.228 72.384,70.372 74.247,69.347 76.823 C 68.760 78.297,68.447 173.836,69.018 177.161 C 69.573 180.388,72.378 183.478,75.327 184.110 C 76.329 184.325,108.954 184.382,197.917 184.324 L 319.141 184.245 320.443 183.556 C 322.079 182.690,323.764 181.000,324.536 179.449 L 325.130 178.255 325.130 127.865 L 325.130 77.474 324.456 76.042 C 323.478 73.967,322.586 73.043,320.627 72.079 L 318.891 71.224 197.401 71.167 C 81.922 71.112,75.846 71.132,74.584 71.569 M291.508 86.218 C 294.955 87.086,297.135 90.795,297.135 95.790 L 297.135 97.135 294.271 97.135 L 291.406 97.135 291.406 95.434 C 291.406 91.615,288.384 89.531,286.351 91.947 C 285.313 93.181,285.286 93.486,285.286 104.036 C 285.286 115.971,285.403 116.406,288.611 116.406 C 290.924 116.406,291.663 114.973,291.665 110.482 L 291.667 107.813 289.974 107.813 L 288.281 107.813 288.281 105.378 L 288.281 102.943 290.665 102.773 C 291.976 102.680,293.977 102.604,295.112 102.604 L 297.176 102.604 297.074 108.919 C 296.958 116.090,296.804 116.828,295.000 118.878 C 290.773 123.680,282.410 122.361,280.236 116.550 C 279.019 113.297,278.698 95.846,279.786 92.060 C 281.197 87.151,285.901 84.806,291.508 86.218 M314.271 86.810 C 316.558 87.990,317.828 90.194,318.137 93.518 L 318.301 95.276 317.418 95.410 C 316.933 95.485,315.687 95.611,314.648 95.691 L 312.760 95.837 312.755 94.859 C 312.742 92.732,311.533 91.146,309.925 91.146 C 306.008 91.146,306.042 96.196,309.983 99.553 C 317.329 105.814,319.095 108.861,318.456 114.170 C 317.856 119.150,314.671 121.795,309.375 121.709 C 304.014 121.622,301.235 118.954,300.852 113.522 L 300.713 111.550 303.206 111.244 C 306.763 110.807,306.510 110.725,306.510 112.315 C 306.510 116.908,311.981 118.352,312.644 113.933 C 313.018 111.434,312.187 109.814,309.080 106.993 C 302.325 100.857,302.057 100.500,301.386 96.745 C 300.587 92.269,301.939 88.595,304.990 86.955 C 307.357 85.683,311.949 85.611,314.271 86.810 M86.520 93.620 L 86.452 100.651 86.976 99.609 C 87.265 99.036,88.785 95.872,90.355 92.578 L 93.210 86.589 96.344 86.515 C 98.069 86.475,99.479 86.516,99.479 86.607 C 99.479 86.697,98.674 88.253,97.689 90.065 C 96.704 91.877,95.117 94.921,94.162 96.829 L 92.425 100.299 93.247 102.428 C 93.699 103.599,94.568 105.964,95.178 107.682 C 95.788 109.401,97.063 112.956,98.013 115.583 C 100.256 121.787,100.388 121.233,96.680 121.179 L 93.620 121.134 92.920 119.226 C 92.535 118.176,91.390 114.981,90.375 112.125 C 89.360 109.269,88.481 106.884,88.422 106.825 C 88.363 106.766,87.897 107.547,87.387 108.561 L 86.458 110.404 86.458 115.814 L 86.458 121.224 83.463 121.224 L 80.468 121.224 80.469 103.833 L 80.469 86.442 83.529 86.515 L 86.589 86.589 86.520 93.620 M115.736 87.435 C 115.829 87.972,116.424 91.107,117.057 94.401 C 117.690 97.695,118.861 103.789,119.660 107.943 C 120.459 112.096,121.342 116.612,121.624 117.978 C 122.358 121.542,122.589 121.231,119.246 121.177 C 115.776 121.121,116.266 121.632,115.595 117.366 L 115.035 113.802 111.949 113.802 C 108.368 113.802,108.839 113.282,108.180 117.969 C 107.673 121.570,108.158 121.121,104.713 121.177 C 101.428 121.230,101.567 121.354,102.073 118.828 C 102.320 117.595,103.538 111.277,106.382 96.484 C 107.180 92.331,107.958 88.376,108.110 87.695 L 108.385 86.458 111.976 86.458 L 115.567 86.458 115.736 87.435 M131.510 101.172 L 131.510 115.885 135.947 115.885 L 140.383 115.885 140.309 118.498 L 140.234 121.111 132.878 121.168 L 125.521 121.224 125.521 103.841 L 125.521 86.458 128.516 86.458 L 131.510 86.458 131.510 101.172 M150.000 103.841 L 150.000 121.224 147.070 121.177 L 144.141 121.130 144.074 103.794 L 144.007 86.458 147.003 86.458 L 150.000 86.458 150.000 103.841 M168.041 86.980 C 171.636 88.090,173.047 90.440,173.047 95.313 C 173.047 99.211,172.685 100.393,170.966 102.099 C 169.721 103.336,169.564 103.646,170.182 103.646 C 173.018 103.646,174.977 111.411,173.333 116.137 C 171.923 120.187,169.639 121.133,161.282 121.123 L 155.339 121.117 155.338 103.983 C 155.338 94.559,155.374 86.761,155.418 86.654 C 155.621 86.166,166.301 86.443,168.041 86.980 M191.014 86.998 C 197.471 88.992,199.163 100.270,193.719 105.032 L 192.418 106.170 193.456 109.140 C 194.026 110.773,195.202 114.095,196.067 116.522 C 196.933 118.949,197.589 120.987,197.525 121.052 C 197.460 121.116,196.028 121.159,194.342 121.147 L 191.276 121.124 189.042 114.273 L 186.807 107.422 185.591 107.343 L 184.375 107.263 184.375 114.244 L 184.375 121.224 181.381 121.224 L 178.386 121.224 178.386 103.841 L 178.385 86.458 183.827 86.458 C 188.594 86.458,189.484 86.525,191.014 86.998 M217.188 89.063 L 217.188 91.667 212.370 91.667 L 207.552 91.667 207.552 96.354 L 207.552 101.042 211.458 101.042 L 215.365 101.042 215.365 103.776 L 215.365 106.510 211.458 106.510 L 207.552 106.510 207.552 111.198 L 207.552 115.885 212.370 115.885 L 217.188 115.885 217.188 118.555 L 217.188 121.224 209.375 121.224 L 201.563 121.224 201.563 103.841 L 201.563 86.458 209.375 86.458 L 217.188 86.458 217.188 89.063 M234.482 86.991 C 238.223 88.146,240.104 91.382,240.104 96.663 C 240.104 100.799,238.592 104.404,236.328 105.666 C 235.825 105.947,235.889 106.194,238.248 113.069 C 239.590 116.981,240.742 120.422,240.807 120.715 C 240.922 121.233,240.834 121.246,237.735 121.171 L 234.545 121.094 232.314 114.181 L 230.083 107.268 228.909 107.345 L 227.734 107.422 227.682 114.278 L 227.629 121.134 224.817 121.134 L 222.005 121.134 221.938 103.796 L 221.871 86.458 227.314 86.458 C 232.062 86.458,232.978 86.526,234.482 86.991 M250.781 103.841 L 250.781 121.224 247.786 121.224 L 244.792 121.224 244.792 103.841 L 244.792 86.458 247.786 86.458 L 250.781 86.458 250.781 103.841 M263.518 89.779 C 266.116 97.329,269.079 105.624,269.308 105.990 C 269.461 106.234,269.488 102.664,269.380 96.419 L 269.208 86.458 271.974 86.458 L 274.740 86.458 274.739 103.841 L 274.738 121.224 272.200 121.184 C 270.804 121.162,269.525 121.132,269.359 121.119 C 269.193 121.105,268.649 119.893,268.150 118.424 C 264.590 107.944,261.945 100.382,261.781 100.219 C 261.675 100.113,261.620 104.795,261.659 110.625 L 261.729 121.224 258.989 121.224 L 256.250 121.224 256.250 103.841 L 256.250 86.458 259.313 86.458 L 262.375 86.458 263.518 89.779 M161.458 96.224 L 161.458 100.781 163.029 100.781 C 166.265 100.781,167.249 99.728,167.280 96.230 C 167.310 92.757,166.326 91.667,163.164 91.667 L 161.458 91.667 161.458 96.224 M184.375 96.875 L 184.375 102.083 186.211 102.083 C 189.500 102.083,190.384 101.119,190.575 97.323 C 190.788 93.077,189.714 91.669,186.263 91.668 L 184.375 91.667 184.375 96.875 M227.604 96.875 L 227.604 102.083 229.622 102.082 C 233.225 102.081,234.276 100.735,234.068 96.388 C 233.889 92.641,232.923 91.667,229.388 91.667 L 227.604 91.667 227.604 96.875 M110.825 101.042 C 110.261 104.551,109.750 107.744,109.688 108.138 L 109.576 108.854 111.819 108.854 C 113.053 108.854,114.063 108.776,114.063 108.680 C 114.063 108.585,113.601 105.685,113.036 102.235 C 112.471 98.786,111.973 95.671,111.929 95.313 C 111.885 94.954,111.388 97.533,110.825 101.042 M161.458 111.198 L 161.458 116.146 163.216 116.145 C 166.657 116.145,167.707 114.966,167.708 111.107 C 167.709 107.191,166.879 106.250,163.424 106.250 L 161.458 106.250 161.458 111.198 M114.743 132.416 C 117.647 133.278,119.883 135.617,120.727 138.672 C 121.729 142.302,121.485 159.350,120.389 162.347 C 117.947 169.017,107.393 169.859,103.773 163.672 C 101.863 160.407,101.640 141.036,103.463 136.675 C 104.972 133.064,110.234 131.077,114.743 132.416 M86.521 139.583 L 86.453 146.484 87.095 145.182 C 87.448 144.466,88.964 141.331,90.464 138.216 L 93.192 132.552 96.205 132.552 C 99.794 132.552,99.721 132.424,97.958 135.611 C 93.488 143.693,92.351 146.141,92.678 146.981 C 92.850 147.424,94.219 151.185,95.720 155.339 C 97.221 159.492,98.740 163.655,99.095 164.590 C 100.123 167.300,100.230 167.188,96.640 167.188 L 93.541 167.188 93.236 166.341 C 93.069 165.876,91.992 162.799,90.844 159.505 C 88.206 151.943,88.525 152.393,87.397 154.633 L 86.458 156.497 86.458 161.842 L 86.458 167.188 83.464 167.188 L 80.469 167.188 80.469 149.862 L 80.469 132.536 83.529 132.609 L 86.589 132.682 86.521 139.583 M134.726 132.749 C 134.850 132.949,135.700 136.635,138.045 147.135 C 139.499 153.646,139.610 154.036,139.773 153.255 C 139.833 152.969,140.640 149.102,141.567 144.661 C 142.493 140.221,143.442 135.680,143.675 134.570 L 144.099 132.552 148.352 132.552 L 152.604 132.552 152.604 149.870 L 152.604 167.188 149.727 167.188 L 146.851 167.188 146.928 155.207 C 146.970 148.618,146.967 143.343,146.920 143.485 C 146.873 143.626,146.508 145.180,146.110 146.936 C 145.712 148.693,144.468 153.968,143.346 158.659 L 141.306 167.188 139.403 167.188 C 138.356 167.188,137.500 167.110,137.500 167.015 C 137.500 166.920,136.277 161.735,134.783 155.492 C 133.288 149.249,132.013 143.906,131.948 143.620 C 131.883 143.333,131.894 148.519,131.973 155.143 L 132.116 167.188 129.209 167.188 L 126.302 167.188 126.302 149.870 L 126.302 132.552 130.453 132.552 C 132.737 132.552,134.659 132.641,134.726 132.749 M171.199 133.054 C 174.429 134.091,175.875 137.145,175.894 142.969 C 175.921 151.142,173.612 153.896,166.732 153.903 L 164.063 153.906 164.063 160.547 L 164.063 167.188 160.938 167.188 L 157.813 167.188 157.813 149.849 L 157.813 132.511 163.997 132.619 C 167.951 132.688,170.549 132.845,171.199 133.054 M192.262 140.039 C 194.767 152.872,197.396 166.637,197.396 166.918 C 197.396 167.088,196.303 167.188,194.446 167.188 L 191.496 167.188 190.910 163.867 C 190.588 162.041,190.267 160.342,190.197 160.091 C 190.087 159.700,183.861 159.317,183.853 159.701 C 183.852 159.736,183.618 161.150,183.332 162.843 C 183.046 164.535,182.813 166.205,182.813 166.554 L 182.813 167.188 179.712 167.188 C 176.893 167.188,176.621 167.146,176.716 166.732 C 176.846 166.161,180.057 149.312,181.790 140.104 C 182.505 136.309,183.140 133.057,183.203 132.878 C 183.287 132.638,184.300 132.552,187.059 132.552 L 190.800 132.552 192.262 140.039 M209.898 139.323 C 211.155 142.975,212.716 147.428,213.367 149.219 L 214.550 152.474 214.567 142.513 L 214.583 132.552 217.318 132.552 L 220.052 132.552 220.052 149.878 L 220.052 167.205 217.145 167.131 L 214.238 167.057 213.265 164.193 C 212.729 162.617,211.065 157.721,209.567 153.313 C 208.069 148.904,206.797 145.252,206.742 145.196 C 206.686 145.141,206.674 150.066,206.714 156.141 L 206.787 167.188 203.914 167.188 L 201.042 167.188 201.042 149.862 L 201.042 132.537 204.327 132.609 L 207.613 132.682 209.898 139.323 M232.031 149.870 L 232.031 167.188 229.036 167.188 L 226.042 167.188 226.042 149.870 L 226.042 132.552 229.036 132.552 L 232.031 132.552 232.031 149.870 M253.125 135.156 L 253.125 137.760 248.438 137.760 L 243.750 137.760 243.750 142.448 L 243.750 147.135 247.526 147.135 L 251.302 147.135 251.302 149.740 L 251.302 152.344 247.526 152.344 L 243.750 152.344 243.750 157.161 L 243.750 161.979 248.568 161.979 L 253.385 161.979 253.385 164.583 L 253.385 167.188 245.573 167.188 L 237.760 167.188 237.760 149.870 L 237.760 132.552 245.443 132.552 L 253.125 132.552 253.125 135.156 M273.177 135.156 L 273.177 137.760 270.443 137.760 L 267.708 137.760 267.708 152.474 L 267.708 167.188 264.714 167.188 L 261.719 167.188 261.719 152.474 L 261.719 137.760 258.854 137.760 L 255.990 137.760 255.990 135.156 L 255.990 132.552 264.583 132.552 L 273.177 132.552 273.177 135.156 M298.082 149.089 C 299.837 158.112,301.352 165.876,301.447 166.341 L 301.620 167.188 298.615 167.188 L 295.610 167.188 295.341 165.820 C 295.193 165.068,294.879 163.366,294.643 162.036 L 294.214 159.620 291.068 159.693 L 287.921 159.766 287.441 163.151 C 287.177 165.013,286.910 166.683,286.848 166.862 C 286.646 167.444,280.657 167.314,280.828 166.732 C 280.901 166.481,281.502 163.405,282.163 159.896 C 282.824 156.387,283.939 150.586,284.640 147.005 C 285.341 143.424,286.218 138.854,286.589 136.849 C 286.960 134.844,287.314 133.053,287.376 132.870 C 287.462 132.617,288.368 132.555,291.189 132.610 L 294.890 132.682 298.082 149.089 M315.417 132.838 C 321.887 134.181,324.306 143.988,319.285 148.524 L 318.273 149.439 319.271 150.100 C 323.243 152.728,323.518 161.156,319.749 164.765 C 317.708 166.719,316.390 167.048,310.221 167.141 L 304.688 167.225 304.688 149.888 L 304.688 132.552 309.362 132.552 C 311.933 132.552,314.658 132.681,315.417 132.838 M110.501 137.349 C 108.717 138.147,108.732 138.044,108.647 149.334 C 108.581 158.141,108.626 159.645,108.986 160.588 C 110.028 163.316,114.003 163.213,114.785 160.437 C 115.218 158.900,115.002 140.036,114.540 139.018 C 113.798 137.382,112.046 136.658,110.501 137.349 M164.063 143.289 L 164.063 148.958 165.768 148.958 C 169.077 148.958,169.850 147.982,169.997 143.620 C 170.159 138.818,169.524 137.860,166.081 137.709 L 164.063 137.620 164.063 143.289 M310.417 142.448 L 310.417 147.135 311.654 147.121 C 314.998 147.081,315.965 145.892,315.841 141.970 C 315.728 138.430,315.155 137.760,312.235 137.760 L 310.417 137.760 310.417 142.448 M185.847 147.332 C 185.296 150.733,184.785 153.779,184.712 154.102 C 184.582 154.676,184.625 154.688,186.951 154.688 C 188.256 154.688,189.323 154.626,189.323 154.552 C 189.323 154.477,188.963 152.397,188.523 149.929 C 187.523 144.319,187.255 142.700,187.183 141.832 C 187.060 140.354,186.812 141.379,185.847 147.332 M290.003 147.466 C 289.465 150.793,288.962 153.779,288.885 154.102 C 288.744 154.695,292.985 155.069,293.308 154.492 C 293.416 154.298,291.243 141.677,291.071 141.505 C 291.022 141.456,290.541 144.138,290.003 147.466 M310.417 157.210 L 310.417 162.240 311.713 162.240 C 314.957 162.240,316.212 160.938,316.348 157.434 C 316.493 153.702,315.498 152.511,312.044 152.286 L 310.417 152.180 310.417 157.210 " stroke="none" fill="#fbfbfb" fill-rule="evenodd"></path><path id="path2" d="M331.378 127.995 C 331.378 154.922,331.408 165.976,331.445 152.560 C 331.483 139.143,331.483 117.112,331.445 103.601 C 331.408 90.091,331.378 101.068,331.378 127.995 M144.071 103.696 C 144.038 113.248,144.098 121.117,144.206 121.184 C 144.383 121.293,144.381 108.802,144.200 92.578 C 144.162 89.141,144.104 94.143,144.071 103.696 M155.286 88.021 C 155.286 88.809,155.335 89.131,155.395 88.737 C 155.455 88.343,155.455 87.699,155.395 87.305 C 155.335 86.911,155.286 87.233,155.286 88.021 M301.113 94.271 C 301.113 94.915,301.163 95.179,301.225 94.857 C 301.288 94.535,301.288 94.007,301.225 93.685 C 301.163 93.363,301.113 93.626,301.113 94.271 M261.556 103.255 C 261.556 104.831,261.599 105.442,261.651 104.613 C 261.703 103.784,261.702 102.495,261.650 101.748 C 261.598 101.002,261.555 101.680,261.556 103.255 M155.274 103.255 C 155.277 103.828,155.330 104.032,155.393 103.708 C 155.455 103.384,155.452 102.915,155.387 102.666 C 155.322 102.417,155.271 102.682,155.274 103.255 M155.274 105.339 C 155.277 105.911,155.330 106.115,155.393 105.791 C 155.455 105.467,155.452 104.999,155.387 104.750 C 155.322 104.501,155.271 104.766,155.274 105.339 M209.452 106.444 C 210.569 106.493,212.326 106.492,213.358 106.443 C 214.390 106.394,213.477 106.354,211.328 106.354 C 209.180 106.355,208.335 106.395,209.452 106.444 M155.308 109.505 C 155.308 111.224,155.350 111.893,155.401 110.992 C 155.452 110.092,155.452 108.685,155.400 107.867 C 155.349 107.049,155.307 107.786,155.308 109.505 M155.306 117.839 C 155.306 119.414,155.349 120.025,155.401 119.196 C 155.453 118.367,155.452 117.078,155.400 116.332 C 155.348 115.585,155.305 116.263,155.306 117.839 M165.304 137.689 C 165.772 137.747,166.475 137.745,166.867 137.686 C 167.258 137.627,166.875 137.579,166.016 137.581 C 165.156 137.582,164.836 137.631,165.304 137.689 M175.842 141.406 C 175.842 141.908,175.895 142.113,175.961 141.862 C 176.026 141.611,176.026 141.201,175.961 140.951 C 175.895 140.700,175.842 140.905,175.842 141.406 M121.208 150.391 C 121.208 154.258,121.244 155.876,121.288 153.987 C 121.333 152.098,121.333 148.934,121.289 146.956 C 121.244 144.978,121.208 146.523,121.208 150.391 M146.995 155.599 C 146.995 161.901,147.029 164.442,147.070 161.245 C 147.112 158.049,147.112 152.892,147.070 149.787 C 147.028 146.681,146.995 149.297,146.995 155.599 M206.616 149.740 C 206.616 152.103,206.656 153.070,206.704 151.888 C 206.752 150.706,206.752 148.773,206.704 147.591 C 206.656 146.410,206.616 147.376,206.616 149.740 M131.887 159.245 C 131.887 163.685,131.922 165.538,131.966 163.363 C 132.009 161.187,132.009 157.554,131.966 155.290 C 131.922 153.025,131.887 154.805,131.887 159.245 M311.396 152.268 C 311.720 152.330,312.189 152.327,312.438 152.262 C 312.687 152.197,312.422 152.146,311.849 152.149 C 311.276 152.152,311.072 152.205,311.396 152.268 M136.393 190.560 C 169.658 190.596,224.092 190.596,257.357 190.560 C 290.622 190.523,263.405 190.494,196.875 190.494 C 130.345 190.494,103.128 190.523,136.393 190.560 " stroke="none" fill="#a9a9a9" fill-rule="evenodd"></path><path id="path3" d="M162.565 91.586 C 162.816 91.651,163.226 91.651,163.477 91.586 C 163.727 91.520,163.522 91.467,163.021 91.467 C 162.520 91.467,162.314 91.520,162.565 91.586 M184.965 91.593 C 185.360 91.653,185.946 91.651,186.267 91.590 C 186.587 91.528,186.263 91.479,185.547 91.481 C 184.831 91.483,184.569 91.533,184.965 91.593 M228.451 91.586 C 228.701 91.651,229.111 91.651,229.362 91.586 C 229.613 91.520,229.408 91.467,228.906 91.467 C 228.405 91.467,228.200 91.520,228.451 91.586 M269.345 93.880 C 269.347 94.596,269.398 94.858,269.458 94.463 C 269.518 94.067,269.516 93.481,269.454 93.160 C 269.392 92.840,269.343 93.164,269.345 93.880 M229.492 102.263 C 229.743 102.328,230.153 102.328,230.404 102.263 C 230.654 102.197,230.449 102.144,229.948 102.144 C 229.447 102.144,229.242 102.197,229.492 102.263 M261.524 109.245 C 261.527 109.818,261.580 110.021,261.643 109.697 C 261.705 109.374,261.702 108.905,261.637 108.656 C 261.572 108.407,261.521 108.672,261.524 109.245 M110.612 113.734 C 111.364 113.786,112.594 113.786,113.346 113.734 C 114.098 113.681,113.483 113.638,111.979 113.638 C 110.475 113.638,109.860 113.681,110.612 113.734 M201.164 150.000 C 201.164 159.238,201.197 163.018,201.237 158.398 C 201.277 153.779,201.277 146.221,201.237 141.602 C 201.197 136.982,201.164 140.762,201.164 150.000 M237.883 150.260 C 237.883 159.642,237.916 163.480,237.956 158.789 C 237.995 154.098,237.995 146.423,237.956 141.732 C 237.916 137.041,237.883 140.879,237.883 150.260 M311.784 137.680 C 312.035 137.745,312.445 137.745,312.695 137.680 C 312.946 137.614,312.741 137.560,312.240 137.560 C 311.738 137.560,311.533 137.614,311.784 137.680 M163.912 143.620 C 163.913 146.628,163.950 147.822,163.997 146.275 C 164.043 144.727,164.042 142.266,163.996 140.806 C 163.950 139.346,163.912 140.612,163.912 143.620 M315.946 142.448 C 315.946 142.949,315.999 143.154,316.065 142.904 C 316.130 142.653,316.130 142.243,316.065 141.992 C 315.999 141.742,315.946 141.947,315.946 142.448 M175.862 143.620 C 175.863 144.479,175.912 144.799,175.970 144.331 C 176.028 143.863,176.027 143.160,175.967 142.769 C 175.908 142.377,175.860 142.760,175.862 143.620 M163.912 161.589 C 163.913 164.596,163.950 165.791,163.997 164.244 C 164.043 162.696,164.042 160.235,163.996 158.775 C 163.950 157.315,163.912 158.581,163.912 161.589 " stroke="none" fill="#7c7c7c" fill-rule="evenodd"></path><path id="path4" d="M217.023 89.063 C 217.023 90.566,217.066 91.182,217.119 90.430 C 217.172 89.678,217.172 88.447,217.119 87.695 C 217.066 86.943,217.023 87.559,217.023 89.063 M86.536 88.021 C 86.536 88.809,86.585 89.131,86.645 88.737 C 86.705 88.343,86.705 87.699,86.645 87.305 C 86.585 86.911,86.536 87.233,86.536 88.021 M269.368 89.974 C 269.369 91.549,269.412 92.160,269.464 91.332 C 269.515 90.503,269.515 89.214,269.462 88.467 C 269.410 87.720,269.368 88.398,269.368 89.974 M161.248 96.143 C 161.220 98.677,161.286 100.805,161.393 100.872 C 161.501 100.939,161.558 99.569,161.521 97.827 C 161.397 92.079,161.299 91.471,161.248 96.143 M196.680 95.703 C 196.683 96.276,196.736 96.480,196.799 96.156 C 196.861 95.832,196.859 95.363,196.794 95.114 C 196.728 94.865,196.677 95.130,196.680 95.703 M196.675 97.656 C 196.675 98.158,196.729 98.363,196.794 98.112 C 196.860 97.861,196.860 97.451,196.794 97.201 C 196.729 96.950,196.675 97.155,196.675 97.656 M209.961 101.235 C 210.928 101.285,212.510 101.285,213.477 101.235 C 214.443 101.185,213.652 101.144,211.719 101.144 C 209.785 101.144,208.994 101.185,209.961 101.235 M279.277 106.250 C 279.277 109.186,279.314 110.387,279.361 108.919 C 279.407 107.451,279.407 105.049,279.361 103.581 C 279.314 102.113,279.277 103.314,279.277 106.250 M185.352 102.267 C 185.674 102.329,186.201 102.329,186.523 102.267 C 186.846 102.205,186.582 102.154,185.938 102.154 C 185.293 102.154,185.029 102.205,185.352 102.267 M161.314 106.324 C 161.243 106.508,161.220 108.764,161.263 111.337 L 161.341 116.016 161.400 111.145 L 161.458 106.274 163.216 106.183 L 164.974 106.092 163.208 106.041 C 161.972 106.005,161.403 106.090,161.314 106.324 M140.197 118.620 C 140.196 119.909,140.240 120.469,140.294 119.865 C 140.349 119.260,140.350 118.206,140.296 117.521 C 140.242 116.836,140.197 117.331,140.197 118.620 M83.273 132.741 C 83.741 132.799,84.444 132.798,84.835 132.738 C 85.227 132.679,84.844 132.631,83.984 132.633 C 83.125 132.634,82.805 132.683,83.273 132.741 M96.419 132.739 C 96.813 132.798,97.458 132.798,97.852 132.739 C 98.245 132.679,97.923 132.630,97.135 132.630 C 96.348 132.630,96.025 132.679,96.419 132.739 M132.230 132.736 C 132.554 132.799,133.022 132.796,133.271 132.731 C 133.520 132.666,133.255 132.615,132.682 132.618 C 132.109 132.621,131.906 132.674,132.230 132.736 M148.381 132.744 C 149.138 132.797,150.310 132.797,150.985 132.743 C 151.661 132.690,151.042 132.647,149.609 132.647 C 148.177 132.648,147.624 132.692,148.381 132.744 M160.352 132.746 C 161.533 132.794,163.467 132.794,164.648 132.746 C 165.830 132.698,164.863 132.658,162.500 132.658 C 160.137 132.658,159.170 132.698,160.352 132.746 M187.565 132.742 C 188.102 132.798,188.981 132.798,189.518 132.742 C 190.055 132.686,189.616 132.640,188.542 132.640 C 187.467 132.640,187.028 132.686,187.565 132.742 M204.625 132.736 C 204.949 132.799,205.418 132.796,205.667 132.731 C 205.916 132.666,205.651 132.615,205.078 132.618 C 204.505 132.621,204.301 132.674,204.625 132.736 M217.383 132.736 C 217.705 132.798,218.232 132.798,218.555 132.736 C 218.877 132.674,218.613 132.623,217.969 132.623 C 217.324 132.623,217.061 132.674,217.383 132.736 M240.169 132.746 C 241.279 132.794,243.096 132.794,244.206 132.746 C 245.316 132.697,244.408 132.657,242.188 132.657 C 239.967 132.657,239.059 132.697,240.169 132.746 M247.721 132.745 C 248.545 132.796,249.893 132.796,250.716 132.745 C 251.540 132.693,250.866 132.651,249.219 132.651 C 247.572 132.651,246.898 132.693,247.721 132.745 M256.836 132.732 C 257.087 132.797,257.497 132.797,257.747 132.732 C 257.998 132.666,257.793 132.613,257.292 132.613 C 256.790 132.613,256.585 132.666,256.836 132.732 M264.512 132.740 C 264.975 132.798,265.795 132.799,266.335 132.742 C 266.876 132.686,266.497 132.639,265.495 132.638 C 264.492 132.636,264.050 132.683,264.512 132.740 M270.121 132.739 C 270.517 132.799,271.103 132.797,271.423 132.735 C 271.743 132.674,271.419 132.625,270.703 132.627 C 269.987 132.629,269.725 132.679,270.121 132.739 M289.388 132.745 C 290.212 132.796,291.559 132.796,292.383 132.745 C 293.206 132.693,292.533 132.651,290.885 132.651 C 289.238 132.651,288.564 132.693,289.388 132.745 M308.398 132.742 C 308.936 132.798,309.814 132.798,310.352 132.742 C 310.889 132.686,310.449 132.640,309.375 132.640 C 308.301 132.640,307.861 132.686,308.398 132.742 M86.529 134.115 C 86.529 134.759,86.580 135.023,86.642 134.701 C 86.704 134.378,86.704 133.851,86.642 133.529 C 86.580 133.206,86.529 133.470,86.529 134.115 M256.083 135.417 C 256.083 136.777,256.127 137.334,256.181 136.654 C 256.235 135.973,256.235 134.860,256.181 134.180 C 256.127 133.499,256.083 134.056,256.083 135.417 M267.550 141.146 C 267.550 143.079,267.591 143.870,267.641 142.904 C 267.691 141.937,267.691 140.355,267.641 139.388 C 267.591 138.421,267.550 139.212,267.550 141.146 M108.450 150.000 C 108.450 154.655,108.485 156.559,108.528 154.232 C 108.571 151.904,108.571 148.096,108.528 145.768 C 108.485 143.441,108.450 145.345,108.450 150.000 M214.689 147.526 C 214.689 149.818,214.729 150.720,214.777 149.532 C 214.826 148.343,214.825 146.468,214.777 145.365 C 214.728 144.262,214.688 145.234,214.689 147.526 M163.873 155.208 C 163.873 155.853,163.924 156.117,163.986 155.794 C 164.048 155.472,164.048 154.945,163.986 154.622 C 163.924 154.300,163.873 154.564,163.873 155.208 M322.201 157.422 C 322.204 157.995,322.257 158.199,322.320 157.875 C 322.382 157.551,322.380 157.082,322.314 156.833 C 322.249 156.584,322.198 156.849,322.201 157.422 " stroke="none" fill="#727475" fill-rule="evenodd"></path></g></svg>